<svg version="1.1" xmlns="http://www.w3.org/2000/svg" xmlns:xlink="http://www.w3.org/1999/xlink" width="121.81704" height="98.40394" viewBox="0,0,121.81704,98.40394"><g transform="translate(-259.09148,-130.79803)"><g data-paper-data="{&quot;isPaintingLayer&quot;:true}" fill="#c57a4f" fill-rule="nonzero" stroke="none" stroke-width="0.5" stroke-linecap="butt" stroke-linejoin="miter" stroke-miterlimit="10" stroke-dasharray="" stroke-dashoffset="0" style="mix-blend-mode: normal"><path d="M300.65817,159.0601c0.02999,1.24964 -1.21966,1.27963 -1.21966,1.27963l-1.78222,0.041c0.0006,0.0404 0.00119,0.08078 0.00175,0.12114c1.89323,1.70627 3.82119,3.37239 5.77389,5.01004c1.06214,-0.94387 1.80971,-2.28219 3.0123,-3.04721c0.68832,-0.43787 1.4825,-0.66301 2.28092,-0.88027c0.1332,-3.86032 0.28957,-8.16917 -1.87029,-11.27512c-5.11656,-7.35777 -15.4605,-5.57769 -22.58907,-2.60319c0.30664,0.28858 0.61255,0.57828 0.91782,0.86888c0.5725,-0.53111 1.17615,-0.92744 1.77058,-1.10318c2.44012,-0.72139 6.2065,1.53513 7.96646,2.87413c0.76811,0.64141 1.82938,1.04343 2.30432,1.92424c0.43796,0.81223 0.38118,4.567 0.39082,5.57606c0.00012,0.01271 0.00025,0.02541 0.00037,0.03811l1.76238,-0.04392c0,0 1.24964,-0.02999 1.27963,1.21966zM291.90098,158.56152c-2.189,-2.0944 -4.36571,-4.25088 -6.56687,-6.38248c-0.14091,0.23641 -0.2762,0.47179 -0.40945,0.69639c-1.33569,2.25144 0.51732,6.58452 0.98507,8.92067c0.34126,1.70439 0.38056,5.48163 1.30203,6.92737c0.13643,0.21406 0.29867,0.40272 0.47971,0.57304c-0.71674,-3.34304 -0.01265,-7.55301 1.58466,-9.17996c0.76235,-0.7765 1.66027,-1.25266 2.62485,-1.55503zM296.91214,168.35508c1.33701,-0.48096 2.87037,-0.92985 4.22697,-1.50781c-1.18491,-1.00017 -2.36031,-2.01132 -3.52396,-3.03606c-0.07691,1.42508 -0.25498,2.84537 -0.63317,4.28135c-0.02268,0.08613 -0.04594,0.17371 -0.06984,0.26252zM283.58986,150.50223c-0.57759,-0.55047 -1.1575,-1.09769 -1.74037,-1.64013c-6.19288,3.66309 -5.27363,10.77602 -5.11252,17.48198c0.03677,1.53039 -0.50802,3.16362 0.0418,4.5923c0.27072,0.70345 1.10022,1.05818 1.48124,1.70852c0.33519,0.57213 0.08012,1.51174 0.62597,1.88822c1.15693,0.79795 2.79789,-0.26947 4.19686,-0.40397c1.59756,-0.15359 3.0709,-0.94992 4.64147,-1.28019c0.35242,-0.07411 0.72225,-0.01803 1.09014,0.03585c-1.15462,-0.84378 -3.51821,-2.51536 -3.71088,-2.81765c-0.16107,-0.25271 -1.05244,-4.82222 -1.15395,-5.32879c-0.60856,-3.03693 -2.12901,-7.00202 -1.98644,-10.08456c0.05225,-1.12971 0.69881,-2.73535 1.62666,-4.15158zM291.18372,175.09165c-0.08298,0.0376 -0.16714,0.07338 -0.25259,0.10718c-0.83298,0.32949 -1.81004,-0.09381 -2.68565,0.09521c-1.65852,0.35803 -3.22738,1.15006 -4.91528,1.32285c-0.91418,0.09359 -5.13109,0.42673 -5.79022,0.02296c-0.86031,-0.52701 -0.86094,-1.83135 -1.40631,-2.68013c-0.49373,-0.76842 -1.38597,-1.29227 -1.6977,-2.15079c-0.09434,-0.25982 -0.18678,-4.92548 -0.19829,-5.40482c-0.18171,-7.56847 -0.69947,-14.95101 5.71833,-19.27524c-1.82028,-1.63625 -3.67544,-3.21121 -5.58456,-4.6797c-4.52854,-3.48334 -9.84993,-6.26228 -14.67305,-9.33154c0,0 -1.05458,-0.67109 -0.38348,-1.72567c0.67109,-1.05458 1.72567,-0.38348 1.72567,-0.38348c4.88665,3.10969 10.26632,5.92943 14.8551,9.4591c2.18315,1.67927 4.29631,3.49534 6.36753,5.38252c8.30712,-3.73371 20.4855,-5.71395 26.63942,3.02511c2.34744,3.33355 2.4158,7.66529 2.3274,11.75562c2.67217,-1.682 4.66446,-4.71279 7.18979,-6.62201c6.29165,-4.75667 15.53637,-8.56874 23.13219,-10.50979c2.77026,-0.69107 4.97772,-0.64057 7.81316,-0.43333c2.9222,0.21359 7.77456,0.94536 10.25937,2.66236c1.86153,1.28631 3.52938,4.66993 4.60145,6.61881c4.5867,8.33797 4.43268,17.70833 6.33154,26.85815c0.98636,4.75286 1.52077,9.94373 3.01379,14.55757c2.58238,7.9802 5.59787,15.86017 6.69438,24.26429c0.3114,2.38672 1.84331,9.85856 -1.33026,11.08302c-1.12543,0.43423 -2.28059,-0.78711 -3.42088,-1.18066c-4.18506,-4.1229 -9.30158,-7.07512 -13.93246,-10.65355c-5.33018,-4.11879 -9.91295,-8.96159 -14.93377,-13.41131c-3.73624,-3.31126 -7.75043,-6.31368 -11.50547,-9.6119c-8.49247,-7.45931 -17.59224,-14.19828 -26.43676,-21.22757c-0.39503,0.19824 -0.86685,0.42652 -1.44105,0.74344c-3.40431,1.73456 -6.51832,1.5307 -10.27592,1.56114c-0.53286,0.00432 -5.18877,0.04357 -5.47819,-0.07149c-0.11523,-0.04581 -0.22385,-0.10197 -0.32722,-0.16636zM310.57057,171.31986c8.77655,6.96743 17.7991,13.65602 26.22211,21.05432c3.75788,3.30071 7.77462,6.30538 11.51381,9.61925c4.97915,4.41279 9.51841,9.21955 14.80424,13.30407c4.58524,3.54315 9.73743,6.43759 13.82733,10.5766c0.37655,0.29708 0.67156,1.03342 1.12964,0.89125c1.11478,-0.346 0.15557,-2.33754 0.06357,-3.50115c-0.32529,-4.11397 -0.78292,-8.12429 -1.73115,-12.15579c-1.33503,-5.67604 -3.4381,-11.06731 -5.20823,-16.57883c-1.51234,-4.70887 -2.07651,-9.97057 -3.08219,-14.81655c-1.68843,-8.13586 -1.70802,-16.39974 -5.03722,-24.00917c-0.96634,-2.20874 -2.79737,-6.51835 -4.86037,-7.91303c-2.15748,-1.45855 -6.48991,-2.05454 -9.02522,-2.23149c-2.58038,-0.18009 -4.50725,-0.2873 -7.01986,0.36287c-7.26562,1.83028 -16.22411,5.53301 -22.23951,10.08083c-2.62964,1.98808 -4.67215,5.08993 -7.48056,6.81497c-0.39799,0.24446 -0.83008,0.41984 -1.27676,0.56548c-0.00352,0.2805 -0.00536,0.55831 -0.00473,0.83297c0.00068,0.29521 0.0103,5.11637 -0.02445,5.2615c-0.19487,0.81392 -0.37246,1.3991 -0.57044,1.8419zM295.65769,171.72405c-0.29528,0.52946 -0.6427,1.00861 -1.05663,1.38917c0.78833,-0.09635 1.59299,-0.27736 2.36782,-0.28363c3.29603,-0.0267 6.19484,0.29787 9.14117,-1.27841c0.17195,-0.08235 0.33184,-0.15381 0.48072,-0.21775c-1.11991,-0.90148 -2.23458,-1.80897 -3.34221,-2.72456c-1.90696,0.9707 -4.32176,1.60856 -6.20082,2.36808c-0.50319,0.19906 -0.9607,0.45623 -1.39005,0.74711zM305.32366,167.08381c1.06457,0.87679 2.13544,1.74635 3.21104,2.61052c0.0587,-0.20497 0.11118,-0.44631 0.16041,-0.73362c0.26677,-1.55684 -0.02601,-3.15897 -0.02964,-4.7385c-0.00007,-0.02881 -0.00009,-0.05767 -0.00009,-0.08658c-0.30604,0.12013 -0.60141,0.26167 -0.87929,0.43845c-0.98658,0.62761 -1.66322,1.64527 -2.46244,2.50974zM294.07142,160.60972c-1.13941,0.15797 -2.22695,0.49038 -3.02442,1.27149c-1.57803,1.54567 -1.69731,8.28342 0.62664,9.47558c0.17953,0.0921 0.34809,0.14489 0.50636,0.16397c0.53455,-0.43877 1.067,-0.91999 1.61795,-1.3738c0.44828,-1.00997 0.65816,-2.27238 0.76517,-2.68616c0.50512,-1.95313 0.61001,-3.88197 0.6086,-5.83867c-0.22158,-0.2021 -0.44267,-0.40478 -0.66324,-0.60806c-0.1458,-0.13437 -0.29149,-0.26916 -0.43707,-0.40435zM286.91588,150.23823c2.70516,2.61632 5.37338,5.27069 8.07165,7.80622c0.04336,-0.00335 0.08672,-0.00662 0.13007,-0.00982c-0.00062,-0.05494 -0.00118,-0.10993 -0.00169,-0.16496c-0.01348,-1.46859 0.6218,-3.1189 -0.08717,-4.4051c-0.32222,-0.58456 -1.09516,-0.76339 -1.64274,-1.14509c-1.07191,-0.85632 -4.17945,-2.90657 -5.72302,-2.45023c-0.27167,0.08032 -0.51919,0.20745 -0.74709,0.36898z"/></g></g></svg>