<svg version="1.1" xmlns="http://www.w3.org/2000/svg" xmlns:xlink="http://www.w3.org/1999/xlink" width="134" height="130" viewBox="0,0,134,130"><g transform="translate(-253,-115)"><g data-paper-data="{&quot;isPaintingLayer&quot;:true}" fill-rule="nonzero" stroke-linecap="butt" stroke-linejoin="miter" stroke-miterlimit="10" stroke-dasharray="" stroke-dashoffset="0" style="mix-blend-mode: normal"><path d="M387,180c0,35.89851 -29.99692,65 -67,65c-37.00308,0 -67,-29.10149 -67,-65c0,-35.89851 29.99692,-65 67,-65c37.00308,0 67,29.10149 67,65z" fill-opacity="0.01176" fill="#ff8400" stroke="none" stroke-width="0"/><path d="M295.23758,212.58265v-50.29278h51.4272v50.29278z" fill="#e7a076" stroke="#ffd4a6" stroke-width="5"/><path d="M286.01789,152.74568c-0.28748,-0.90058 0.6131,-1.18806 0.6131,-1.18806l1.60772,-0.50975c3.11363,-0.44665 6.05027,-1.86451 9.17455,-2.17741c1.98129,-0.19843 3.63743,0.38575 5.53856,0.38575c0.79612,0.26538 1.69693,0.13407 2.47919,0.43789c0.33233,0.12908 0.43087,0.61064 0.75628,0.75628c0.59665,0.26705 2.81439,-0.07197 3.41965,-0.07197c1.49322,0 3.414,0.33657 4.85257,-0.03302c1.04262,-0.26786 1.86048,-0.93119 2.93697,-1.08919c1.97566,-0.28999 4.08566,-0.13619 6.07095,-0.38127c2.7791,-0.34306 5.16311,-1.14387 8.05104,-1.14328c5.00657,-0.21388 9.80091,-0.77337 14.72375,0.45308c2.25113,0.56083 3.68002,1.79523 5.70017,2.64379c1.70094,0.71447 3.87114,1.88851 5.22253,3.23005c0.29392,0.29178 0.33874,0.79228 0.66164,1.05161c0.34968,0.28084 0.98078,0.1316 1.25423,0.48709c0.41001,0.53302 0.40109,1.28373 0.60164,1.9256c0.5656,2.30377 0.34168,4.17875 0.01531,6.43529c-0.75266,5.204 -1.46619,11.09585 -7.58754,12.12163c-0.85454,0.1432 -1.71805,0.52653 -2.57171,0.37814c-2.25201,-0.39148 -3.36714,-2.84164 -5.06335,-4.19585c-3.33667,0.07777 -6.23267,3.86864 -9.53272,3.82992c-1.36702,-0.01604 -3.71057,-1.61468 -4.53269,-2.64037c-0.19978,-0.24926 0.07273,-0.74548 -0.17962,-0.94134c-0.22822,-0.17712 -0.58367,0.23535 -0.85561,0.13788c-0.8933,-0.3202 -1.27464,-1.43353 -2.06283,-1.96201c-0.55203,-0.37014 -1.72117,0.72521 -1.90439,0.81789c-2.64649,1.33872 -5.34783,3.1405 -8.35635,2.9342c-0.23201,-0.39882 -1.39297,-2.8328 -2.3767,-2.89615c-0.63115,-0.04065 -0.81405,0.977 -1.29908,1.38289c-1.71267,1.43324 -3.32525,3.04841 -5.11378,4.38449c-0.65786,0.49144 -1.20465,1.25457 -2.00725,1.42816c-0.39126,0.08462 -0.50576,-0.89244 -0.89533,-0.80036c-0.32836,0.07762 0.10055,0.69047 -0.00101,1.01224c-0.1946,0.61653 -0.57633,1.15748 -0.86626,1.73534c-0.80513,1.60474 -3.04159,5.64097 -5.00121,5.99049c-0.67816,0.12096 -1.26528,-0.56709 -1.82692,-0.96595c-1.34036,-0.95188 -2.02156,-1.99506 -3.63439,-2.58533c-0.41275,-0.20836 -0.77987,-0.56453 -1.23825,-0.6251c-0.6108,-0.08071 -0.59565,1.0859 -0.98162,1.56612c-1.11089,1.38217 -2.9187,4.37148 -4.61668,4.84314c-2.2874,0.63539 -3.48369,-1.82763 -4.48139,-3.43292c-2.97332,-4.78407 -3.45713,-9.70172 -1.78911,-15.14078c0.61026,-0.98235 0.66348,-2.2177 0.91693,-3.34605c0.41986,-1.86917 1.46117,-4.51791 2.33969,-6.2484c0.37923,-0.747 1.12183,-1.25689 1.55763,-1.97236c0.4147,-0.68084 0.34832,-1.58395 0.75628,-2.26884c0.9502,-1.59521 2.50437,-2.95897 4.26308,-4.04194c-0.69204,0.18004 -1.38871,0.33343 -2.09418,0.43378l-1.45541,0.46804c0,0 -0.90058,0.28748 -1.18805,-0.6131z" fill="#ff6969" stroke="none" stroke-width="0.5"/><path d="M309.03973,184.97834c0,-0.52211 0.42325,-0.94536 0.94535,-0.94536c0.52211,0 0.94535,0.42325 0.94535,0.94536c0,0.52211 -0.42325,0.94536 -0.94535,0.94536c-0.52211,0 -0.94535,-0.42325 -0.94535,-0.94536z" fill="#ffd4a6" stroke="none" stroke-width="0.5"/><path d="M331.7282,186.86905c0,-0.52211 0.42325,-0.94535 0.94535,-0.94535c0.52211,0 0.94536,0.42324 0.94536,0.94535c0,0.52211 -0.42325,0.94536 -0.94536,0.94536c-0.52211,0 -0.94535,-0.42325 -0.94535,-0.94536z" fill="#ffd4a6" stroke="none" stroke-width="0.5"/><path d="M301.74121,202.01461c-0.92935,0.17324 -1.10259,-0.75611 -1.10259,-0.75611l-0.15903,-1.63257c1.49366,-1.26116 3.23833,-2.20224 4.67854,-3.50463c0.51685,-0.4674 0.84952,-1.15597 1.45475,-1.50133c2.04165,-1.16502 5.3393,-1.43251 7.63535,-1.86051c7.17682,-1.33779 14.56799,1.49713 21.42287,3.40309c2.01794,0.56108 3.9319,1.03962 5.69065,2.21015c0,0 0.77963,0.53465 0.24499,1.31429c-0.53465,0.77963 -1.31429,0.24499 -1.31429,0.24499c-1.4928,-1.06423 -3.32703,-1.44654 -5.08324,-1.93602c-1.69005,-0.47103 -3.31296,-1.29476 -4.9904,-1.78301c-2.79983,-0.81494 -5.67774,-0.73753 -8.51335,-1.28791c-2.808,-0.54502 -4.25448,-0.83933 -7.11077,-0.3069c-2.07539,0.38686 -5.21072,0.59173 -7.04305,1.64301c-0.48911,0.28062 -0.71052,0.88119 -1.1257,1.26279c-1.23072,1.13118 -2.7549,1.94732 -4.18536,2.79023l0.25673,0.59786c0,0 0.17323,0.92934 -0.75611,1.10258z" fill="#ffd4a6" stroke="none" stroke-width="0.5"/></g></g></svg>