<svg version="1.1" xmlns="http://www.w3.org/2000/svg" xmlns:xlink="http://www.w3.org/1999/xlink" width="869.78229" height="601.01777" viewBox="0,0,869.78229,601.01777"><g transform="translate(56.3093,115.1952)"><g data-paper-data="{&quot;isPaintingLayer&quot;:true}" fill-rule="nonzero" stroke-linejoin="miter" stroke-miterlimit="10" stroke-dasharray="" stroke-dashoffset="0" style="mix-blend-mode: normal"><path d="M-56.3093,387.80783v-415.91592h121.62162v415.91592z" fill="#000000" stroke="none" stroke-width="0" stroke-linecap="butt"/><path d="M574.31533,406.32134v-415.91591h121.62163v415.91592z" fill="#000000" stroke="none" stroke-width="0" stroke-linecap="butt"/><path d="M169.47347,473.70395l-41.01244,-0.45954l0.46989,-41.93754l41.01245,0.45953z" fill-opacity="0.1451" fill="#ffffff" stroke-opacity="0.50196" stroke="#b8b8b8" stroke-width="5" stroke-linecap="butt"/><path d="M120.59375,480.67564c-0.73703,0.2262 -0.96323,-0.51083 -0.96323,-0.51083l-0.401,-1.31571c-0.33579,-2.54316 -1.46518,-4.95087 -1.6918,-7.50151c-0.14371,-1.6175 0.34781,-2.9627 0.36518,-4.51302c0.22369,-0.64679 0.12484,-1.38258 0.37974,-2.01772c0.10829,-0.26984 0.50189,-0.34579 0.62363,-0.60982c0.22322,-0.48411 -0.03297,-2.29572 -0.02745,-2.78929c0.01364,-1.21768 0.30566,-2.78095 0.01741,-3.95744c-0.20891,-0.85267 -0.74237,-1.52569 -0.86137,-2.40498c-0.21842,-1.61376 -0.07372,-3.33299 -0.25544,-4.95418c-0.25436,-2.26943 -0.88562,-4.22084 -0.85875,-6.57586c-0.12866,-4.08468 -0.54112,-7.99945 0.504,-12.0027c0.47791,-1.83062 1.4976,-2.98455 2.20803,-4.62418c0.59817,-1.38054 1.5754,-3.13957 2.68174,-4.22933c0.24062,-0.23702 0.64918,-0.26899 0.86361,-0.52994c0.23221,-0.28258 0.11628,-0.79859 0.40866,-1.01834c0.43841,-0.32948 1.05052,-0.31536 1.57578,-0.47303c1.88384,-0.44018 3.41079,-0.24045 5.24795,0.04632c4.23685,0.66132 9.03499,1.29703 9.81555,6.2982c0.10897,0.69817 0.41367,1.40584 0.28486,2.10062c-0.33981,1.83288 -2.34805,2.71984 -3.46787,4.09069c0.03293,2.72168 3.09784,5.11793 3.03611,7.80867c-0.02557,1.11462 -1.35064,3.01112 -2.19457,3.67217c-0.2051,0.16064 -0.60726,-0.06612 -0.76928,0.13788c-0.14652,0.18448 0.1866,0.47812 0.10462,0.69899c-0.26928,0.72553 -1.18067,1.02634 -1.61883,1.66426c-0.30688,0.44678 0.57567,1.41019 0.64957,1.56045c1.06751,2.17037 2.51213,4.38971 2.31641,6.8412c-0.32735,0.18556 -2.3228,1.11005 -2.38345,1.91168c-0.03892,0.51431 0.78928,0.67276 1.11584,1.072c1.15312,1.40974 2.45552,2.73951 3.52871,4.21022c0.39475,0.54095 1.01206,0.99382 1.14628,1.64991c0.06543,0.31983 -0.73238,0.40427 -0.66085,0.7228c0.06029,0.26848 0.56399,-0.07569 0.82545,0.01007c0.50099,0.16433 0.93863,0.48055 1.40721,0.72226c1.30127,0.67123 4.57227,2.53188 4.83939,4.1331c0.09244,0.55413 -0.47401,1.02662 -0.8044,1.48098c-0.78848,1.08434 -1.64538,1.6303 -2.14147,2.94013c-0.17369,0.33468 -0.46749,0.6308 -0.52107,1.00404c-0.0714,0.49735 0.88008,0.49566 1.26816,0.8148c1.11697,0.91852 3.53816,2.42007 3.90727,3.80904c0.49724,1.87111 -1.52221,2.82415 -2.8404,3.62308c-3.92846,2.38095 -7.94309,2.73056 -12.36327,1.32064c-0.7955,-0.50662 -1.8024,-0.56131 -2.72023,-0.7783c-1.52042,-0.35947 -3.67088,-1.23283 -5.07403,-1.96505c-0.60569,-0.31608 -1.01471,-0.92631 -1.59418,-1.28823c-0.55142,-0.3444 -1.28849,-0.29852 -1.84327,-0.63745c-1.29218,-0.78944 -2.39008,-2.06929 -3.25714,-3.51337c0.14049,0.56599 0.25921,1.13551 0.3346,1.71172l0.36838,1.19112c0,0 0.22621,0.73704 -0.51082,0.96323z" fill-opacity="0.1451" fill="#ffffff" stroke="none" stroke-width="0.5" stroke-linecap="butt"/><path d="M147.18341,453.76987c-0.42577,-0.00477 -0.76705,-0.35379 -0.76228,-0.77955c0.00477,-0.42577 0.35379,-0.76704 0.77956,-0.76227c0.42577,0.00477 0.76704,0.35379 0.76227,0.77956c-0.00477,0.42577 -0.35378,0.76704 -0.77955,0.76227z" fill-opacity="0.1451" fill="#ffffff" stroke="none" stroke-width="0.5" stroke-linecap="butt"/><path d="M148.04092,442.07176c-0.42577,-0.00477 -0.76704,-0.35377 -0.76227,-0.77954c0.00477,-0.42577 0.35378,-0.76704 0.77955,-0.76227c0.42577,0.00477 0.76705,0.35378 0.76228,0.77955c-0.00477,0.42577 -0.35379,0.76703 -0.77956,0.76226z" fill-opacity="0.1451" fill="#ffffff" stroke="none" stroke-width="0.5" stroke-linecap="butt"/><path d="M141.27913,441.7868c0.91683,-0.44564 1.36248,0.47119 1.36248,0.47119l-0.39279,0.0062c1.0856,0.35543 3.97416,2.84705 3.98638,4.296c0.00489,0.57814 -0.71324,0.91246 -1.0237,1.4002c-0.90131,1.41593 -1.92612,2.43952 -3.13722,3.62379c0,0 -0.72885,0.71271 -1.44156,-0.01614c-0.7127,-0.72885 0.01615,-1.44157 0.01615,-1.44157c1.10253,-1.0781 1.93464,-2.2953 2.92212,-3.37665c0.14848,-0.16262 0.58938,0.00475 0.62553,-0.21247c0.03202,-0.19241 -0.42281,-0.01994 -0.56455,-0.15394c-0.36891,-0.34875 -0.64278,-0.79113 -0.89885,-1.2295c-0.22827,-0.3908 -0.55174,-0.86202 -1.00092,-0.91744l-0.92425,-1.08718c0,0 -0.44564,-0.91684 0.47119,-1.36248z" fill-opacity="0.1451" fill="#ffffff" stroke="none" stroke-width="0.5" stroke-linecap="butt"/><g fill-opacity="0.1451" fill="#ffffff" stroke-opacity="0.50196" stroke="#2b2b2b"><path d="M157.04158,423.59164c1.01934,0.01142 1.00793,1.03077 1.00793,1.03077l-0.00261,0.23299c-0.034,3.03437 0.04862,6.05865 0.01468,9.08801c0,0 -0.01143,1.01934 -1.03077,1.00793c-1.01934,-0.01142 -1.00792,-1.03077 -1.00792,-1.03077c0.03394,-3.02905 -0.04868,-6.0538 -0.01469,-9.08801l0.00262,-0.23299c0,0 0.01141,-1.01934 1.03075,-1.00793z" stroke-width="0.5" stroke-linecap="butt"/><path d="M156.62331,384.54799c0.90661,0.46607 0.44053,1.37269 0.44053,1.37269l-0.16518,0.08595c-0.03249,2.89947 -0.06498,5.79892 -0.09746,8.69838c0,0 -0.00036,0.03248 -0.00676,0.08577c0.27425,0.30444 0.26944,0.73275 0.26944,0.73275l-0.00913,0.81547c-0.07538,6.72773 0.12141,13.42719 0.04644,20.11807c-0.00534,0.47599 -0.02891,0.95474 -0.06286,1.43525c0.86114,0.10861 0.85093,1.02031 0.85093,1.02031c-0.02132,1.90277 -0.04569,4.07737 -0.06701,5.98014c0,0 -0.01107,0.98687 -0.98245,1.00768c0.18083,1.28591 0.39589,2.55921 0.38398,3.87907c-0.01628,1.80493 -0.71759,4.35392 0.89047,5.44716c0,0 0.80863,0.62074 0.18788,1.42936c-0.62074,0.80862 -1.42937,0.18788 -1.42937,0.18788c-2.29807,-1.89376 -1.72499,-4.34179 -1.68766,-7.08724c0.02081,-1.53078 -0.32006,-3.00001 -0.48563,-4.50248c-0.32219,-2.92383 0.33029,-5.89712 0.36303,-8.81997c0.07496,-6.69004 -0.12181,-13.39078 -0.04643,-20.11807l0.00913,-0.81547c0,0 0.00035,-0.03249 0.00675,-0.08578c-0.27425,-0.30444 -0.26944,-0.73275 -0.26944,-0.73275c0.03249,-2.89947 0.06497,-5.79892 0.09745,-8.69838l0.39064,-0.99525c0,0 0.46609,-0.90662 1.3727,-0.44054z" stroke-width="0.5" stroke-linecap="butt"/><path d="M149.95751,441.69385c0.00124,0.02676 0.0017,0.05428 0.00138,0.08259c-0.01142,1.01934 -1.03077,1.00792 -1.03077,1.00792l-0.71106,-0.02184c-1.51792,-0.30944 -2.43155,-0.11208 -3.20152,-1.73877c-0.6803,-1.43725 0.06084,-4.46811 0.26855,-5.94886c0.56865,-4.05373 -1.14777,-7.84967 -0.6905,-11.84497c0.06946,-0.60694 -0.11797,-1.37764 0.31881,-1.80474c0.43678,-0.4271 1.20762,-0.18554 1.81143,-0.2783c0.84363,0.00945 3.40132,-0.24795 3.97934,0.34319c0.72879,0.74532 0.25713,4.04289 0.24175,5.07333c-0.06954,4.65739 -0.10577,9.44022 -0.15838,14.13488c0,0 -0.00986,0.8801 -0.82905,0.99557z" stroke-width="0.5" stroke-linecap="butt"/><path d="M159.92313,438.08206c0.00876,-0.78166 0.61019,-0.9572 0.89019,-0.99657c0.76563,-0.64668 1.72687,-1.17474 2.35561,-1.77984c0.31338,-0.3016 0.18895,-0.87833 0.08948,-1.30174c-0.41816,-1.7797 -2.23423,-1.41465 -3.61337,-1.4301c0,0 -1.01933,-0.01143 -1.00791,-1.03077c0.01142,-1.01934 1.03076,-1.00792 1.03076,-1.00792c1.18992,0.01333 2.67859,-0.19359 3.7596,0.44632c1.70553,1.00961 2.63124,3.93001 1.31742,5.61769c-0.47713,0.61291 -2.15625,1.57928 -2.81789,2.22626l-0.99595,0.28744c0,0 -1.01934,-0.01143 -1.00792,-1.03077z" stroke-width="0.5" stroke-linecap="butt"/><path d="M161.26997,441.7191l0.60933,1.31596c0.02653,2.81499 0.23685,5.55872 0.20511,8.39229c-0.0066,0.58842 -0.3493,2.36561 -0.10978,2.87093c0.57448,1.21201 1.3701,2.55855 2.02197,3.87723c0.08347,0.13 0.1283,0.26884 0.15235,0.38168c0.03641,0.15463 0.05826,0.37059 -0.01547,0.58569c1.0387,1.04978 2.31453,2.29127 2.90052,3.61373c0.33112,0.74727 0.45857,1.60642 0.94699,2.26177c0.47365,0.63552 1.81284,2.25081 1.47585,3.12547c-0.7395,1.91944 -4.75937,1.192 -6.29279,1.16266c-3.77438,0.89878 -7.621,0.95348 -11.47218,0.13115c-0.49345,-0.10536 -3.33696,-0.71282 -3.3772,-0.77341c-0.01737,-0.02616 0.59484,-2.4477 0.72681,-2.94995c0.64732,-2.46353 0.78158,-5.06538 1.4444,-7.59586c0.66662,-2.54492 1.61501,-4.98031 1.96389,-7.46735c0.66058,-4.7092 0.02003,-8.91355 1.93548,-13.11658l-0.13418,-0.03515l0.27861,-1.06362c0.1081,-0.45278 0.51784,-0.78709 1.00295,-0.78166c0.40693,0.00455 0.75549,0.24694 0.91507,0.59355l0.40796,0.83929c1.92755,0.85483 3.85434,1.81399 4.50133,3.75437c0,0 0.10651,0.44724 -0.12389,0.81256c0.02462,0.04003 0.03687,0.06524 0.03687,0.06524z" stroke-width="0.5" stroke-linecap="butt"/><path d="M161.1747,441.63024l0.67842,12.24126l9.34025,15.6006l-23.10814,0.01294l6.62963,-33.63621l5.39689,3.59464l-1.85405,-4.37052l-0.79262,-50.57461l-3.26493,0.23528l0.78956,50.84643l-4.35223,0.2231l-0.10128,-15.22523l-5.98318,0.20482l0.57181,21.7551l5.16772,-0.21395l0.20102,-17.94043" stroke-width="2.5" stroke-linecap="round"/></g><path d="M157.30258,-94.07656c0,-0.69035 0.55964,-1.25 1.25,-1.25c0.69036,0 1.25,0.55965 1.25,1.25c0,0.69035 -0.55964,1.25 -1.25,1.25c-0.69036,0 -1.25,-0.55965 -1.25,-1.25z" fill-opacity="0.1451" fill="#ffffff" stroke="none" stroke-width="0.5" stroke-linecap="butt"/><path d="M55.05572,19.19882c0.31427,0.92684 -0.03302,1.76557 -0.03302,1.76557l-0.00748,0.01805c-0.05743,0.13869 -1.40409,3.39557 -1.43746,3.45699c-1.02095,1.87964 -2.29783,2.72835 -3.31969,4.62571c-0.99353,1.84476 -1.89219,4.31727 -2.81356,6.41556c-2.0229,4.60688 -4.04074,9.40228 -6.12858,13.86894c1.84504,2.70089 3.70269,5.35242 5.61068,7.69962c1.44776,1.78103 2.9641,2.98404 4.29839,5.3462c1.00528,1.77969 3.47924,6.33151 3.35288,10.12015c-0.03441,1.03171 -0.41704,1.7472 -0.62556,2.62079c-0.50459,1.89751 -0.9784,4.72096 -1.53719,6.40607c-0.62877,1.89616 -1.72616,2.71466 -2.49925,4.08326c-1.55647,2.75544 -2.8596,6.62452 -4.45177,9.22933c-1.0589,1.73237 -2.33315,2.52396 -3.39184,4.25228c-1.28776,2.10228 -2.46636,5.10549 -3.66121,7.57428c-4.44225,9.17405 -9.23395,17.42443 -13.94085,25.72231c0.23844,0.20762 0.47116,0.44596 0.69223,0.74663c1.09065,1.48338 2.11687,3.97546 3.1179,5.86285c1.79998,3.40421 3.17551,8.11538 4.83584,11.96509c1.88588,4.37269 4.04959,7.7173 6.02288,11.75932c1.477,3.02545 2.74867,6.71277 4.32046,9.40036c2.1067,3.61157 4.30168,6.64011 6.46417,9.9793c0.75434,1.16481 1.52546,2.99314 2.33213,3.86264c1.61255,1.73815 3.69088,1.0414 5.38518,0.88035c0.47474,-0.04513 0.90498,-0.20843 1.33058,-0.17582c0.11089,-0.21268 0.22022,-0.41541 0.32764,-0.60267l0.10689,0.03343l-0.00554,-0.1036l0.91937,-0.35034c0.02416,-0.01026 0.04894,-0.01559 0.07418,-0.01559c0.25868,0 0.46837,0.55964 0.46837,1.25c0,0.53112 -0.12412,0.98486 -0.29916,1.16593l-0.8554,0.94565l-0.00419,-0.02703c-0.02364,0.03192 -0.0476,0.06245 -0.07189,0.09149c-0.15741,0.18814 -0.34226,0.32228 -0.54569,0.41539c-0.56389,1.14025 -1.16133,2.39814 -1.75302,3.10939c-0.84404,1.01459 -1.88997,0.79839 -2.73431,1.78625c-0.77764,0.90983 -1.56106,2.79131 -2.26931,4.04751c-1.57093,2.7808 -3.33462,4.6914 -4.98498,7.11785c-2.50405,3.68159 -5.02284,7.27137 -7.55171,10.8145c2.50595,3.08272 5.14945,5.49136 7.80237,7.41481c0.542,0.39323 2.76255,1.50581 2.99149,2.92907c0.17064,1.0608 -0.24964,2.21339 -0.40811,3.28757c-0.3796,2.57303 -1.03127,4.27127 -1.69711,6.32168c-1.41731,4.36455 -2.83621,9.04873 -4.33913,13.19445c-1.50219,4.14372 -3.42864,7.20646 -4.73908,11.82234c-1.94508,6.81589 -4.60097,12.13695 -7.06577,17.6688c0.21819,0.33335 0.43635,0.66683 0.65447,1.00054c1.29304,1.97829 2.61993,4.70335 3.99367,6.21735c1.38586,1.52735 3.06618,2.08807 4.51987,3.09605c1.00131,1.30521 2.22065,3.65875 3.31276,4.27409c1.09259,0.61562 2.5283,-0.0272 3.64964,-0.02751c2.7852,-0.00075 5.61954,0.32938 8.39945,-0.15698c0.64223,-0.11236 1.14762,-0.29791 1.66573,-0.39466c0.0129,-0.0223 0.02581,-0.04454 0.03871,-0.06672l0.04484,0.05193c0.01082,-0.0018 0.02164,-0.00357 0.03248,-0.00529l-0.01194,-0.1111l0.03519,-0.02694l-0.01512,-0.20515l0.90973,-0.47739c0.03215,-0.01862 0.06554,-0.02842 0.09978,-0.02842c0.25868,0 0.46837,0.55964 0.46837,1.25c0,0.58042 -0.14823,1.06845 -0.34917,1.20916l-0.83952,0.6428c-1.01285,1.78679 -2.02773,3.91204 -3.10399,5.40416c-0.79802,1.10637 -1.81801,1.46323 -2.5765,2.73929c-3.38401,5.69321 -7.08741,10.51479 -10.42372,16.57414c-3.35059,6.08143 -6.6433,12.81426 -10.08741,18.60229c1.30841,1.80011 2.56814,3.96843 3.87751,5.79037c3.71193,4.43959 7.36412,9.09578 11.0028,13.94817c1.68922,2.25268 3.78152,3.47117 5.03066,7.30466l0.1492,0.46887c0,0 0.30318,0.95278 -0.05382,1.76192c-0.35701,0.80914 -0.66019,-0.14364 -0.66019,-0.14364l-0.1492,-0.46887c-1.08116,-3.50094 -3.21901,-4.66539 -4.73529,-6.68648c-3.63566,-4.8461 -7.28467,-9.49481 -10.99243,-13.93456c-1.38221,-1.92128 -2.70932,-4.22936 -4.09559,-6.08598c-0.10329,-0.13833 -0.20716,-0.27465 -0.31157,-0.4091c-0.20603,0.33245 -0.41267,0.66106 -0.61994,0.9855c-1.61218,2.52353 -3.38244,4.51662 -5.05463,6.74793c-1.67149,2.23038 -3.33433,4.82207 -5.06079,6.72792c-1.15287,1.27265 -2.39236,1.99997 -3.55308,3.23012c-2.52209,2.67296 -4.7866,6.20579 -7.47578,2.6949c0,0 -0.41892,-0.55902 -0.20946,-1.67705c0.20946,-1.11804 0.62839,-0.55902 0.62839,-0.55902c2.35538,3.22638 4.50624,-0.44556 6.71112,-2.78233c1.15649,-1.22567 2.39236,-1.94907 3.54076,-3.21679c1.70558,-1.88279 3.34855,-4.45028 4.99992,-6.65382c1.65338,-2.20622 3.40567,-4.17331 4.99963,-6.66831c0.01894,-0.02964 0.03787,-0.05931 0.05679,-0.08902c-1.81991,-2.09372 -3.75189,-3.77239 -5.57511,-5.67817c-2.32859,-2.43403 -4.58626,-5.25182 -6.91638,-7.64409c-1.28671,-1.32102 -3.3925,-2.21432 -4.46985,-4.46636c-0.36878,-0.77088 -0.91875,-1.63749 -0.89735,-2.88635c0.02328,-1.35834 2.12015,-4.33121 2.54853,-5.08727c1.05657,-1.86476 2.20839,-3.14879 3.29148,-4.87645c2.08798,-3.33058 3.97469,-7.91481 5.6861,-12.48093c2.06429,-5.50762 4.08349,-11.16532 6.27321,-16.31633c-2.38202,-3.63682 -4.76275,-7.27672 -7.11747,-11.04001c-3.22859,-5.1599 -6.6955,-8.86719 -9.90987,-14.08309c-0.48499,-0.78699 -2.6056,-3.77079 -2.50165,-5.62197c0.06705,-1.1939 0.75787,-1.32625 1.1594,-1.8822c1.36749,-1.89338 2.72021,-3.83784 4.0883,-5.76208c2.81245,-3.95267 5.72468,-6.63421 8.65828,-9.77083c1.15588,-1.23588 2.23686,-3.26733 3.42183,-4.284c0.58381,-0.50089 1.24159,-0.26357 1.81011,-0.87704c0.57294,-0.61823 0.98029,-2.06108 1.54291,-2.74347c0.86635,-1.05077 1.75629,-1.24422 2.61801,-2.44075c1.07788,-1.48611 2.15445,-2.97548 3.22938,-4.47151c-2.7427,-3.79022 -5.4116,-8.27256 -8.52887,-9.46526c-3.43839,-1.34017 -6.68756,-4.12037 -10.06119,-6.27031c-3.05117,-1.94445 -6.1476,-3.2734 -9.13816,-5.82804c-2.69162,-2.29927 -5.45195,-4.0599 -8.03778,-7.16819c-1.0029,-1.20553 -2.43364,-1.76561 -2.25927,-5.78985c0.01489,-0.34366 1.08188,-4.059 1.21624,-4.53225c0.80779,-2.84524 1.87154,-4.35748 2.81574,-6.7962c0.65744,-1.69806 1.22205,-3.86225 1.81485,-5.72294c5.13371,-10.98983 10.64907,-20.70561 16.11445,-30.46987c0.21674,-0.38723 0.43383,-0.77399 0.65121,-1.1604c-0.07294,-0.07767 -0.14493,-0.16007 -0.21579,-0.24819c-1.41186,-1.75586 -2.64642,-4.56973 -4.02603,-6.50184c-2.41233,-3.37842 -5.08453,-6.62668 -7.62876,-9.19766c-1.7582,-1.78963 -3.28141,-4.88582 -5.00394,-6.92672c-0.34755,-0.41178 -1.96981,-1.70029 -2.02545,-2.6328c-0.16828,-2.82043 2.07184,-4.32219 2.70055,-5.0018c2.88353,-3.11696 5.87726,-5.10506 8.55558,-9.49204c5.84079,-8.00352 11.05025,-18.57504 16.49936,-28.29286c2.57831,-4.59809 5.28598,-8.89847 7.77404,-13.83514c0.23007,-0.4565 0.45907,-0.91861 0.68709,-1.38566c-0.45958,-0.67816 -0.91875,-1.35641 -1.37801,-2.03104c-0.83428,-0.83037 -1.69573,-1.95203 -2.55596,-2.55763c-1.16777,-0.8221 -2.67148,-0.31897 -3.77276,-1.63675c-1.93021,-2.30969 -3.32069,-8.21185 -5.12821,-11.15121c-1.8301,-2.9761 -4.02344,-4.8235 -5.92183,-7.61041c-1.42744,-3.12517 -2.77374,-6.98429 -4.25118,-9.8635c-0.99877,-1.94637 -2.35316,-2.68951 -3.31953,-4.757c-0.96677,-2.06834 -1.55148,-5.40415 -2.46779,-7.62603c-0.35458,-0.85979 -1.23145,-2.06503 -1.55047,-2.94013c-0.03927,-0.10771 -1.03476,-4.10444 -1.09323,-4.33854c0,0 -0.25981,-1.04007 0.1299,-1.73344c0.38971,-0.69337 0.64952,0.34669 0.64952,0.34669c0.3306,1.32344 0.56962,2.84191 0.98522,3.98195c0.42886,1.1764 1.05381,1.72943 1.50899,2.83315c0.89962,2.1814 1.47866,5.50374 2.42377,7.52574c0.94924,2.03084 2.30005,2.76713 3.28603,4.68859c1.46883,2.86242 2.81117,6.69126 4.22379,9.81211c1.8885,2.74332 4.06604,4.5892 5.88423,7.54594c1.30694,2.12533 2.49247,5.42414 3.67858,8.0127c0.45192,0.98627 0.81275,2.35479 1.34545,2.99221c1.03328,1.23642 2.52428,0.72333 3.62844,1.50064c0.91053,0.641 1.82582,1.81804 2.70759,2.70258c0.59713,0.87179 1.19365,1.7514 1.79087,2.63013c2.18869,-4.63054 4.29617,-9.65266 6.40946,-14.4654c0.94479,-2.15165 1.86741,-4.67752 2.88703,-6.56677c1.58074,-2.92896 3.21187,-4.37839 4.66319,-7.88346l0.00748,-0.01806c0,0 0.34729,-0.83872 0.66156,0.08812zM39.4954,53.1096c-2.50077,4.96189 -5.22105,9.286 -7.81247,13.90749c-5.46834,9.75212 -10.6965,20.37237 -16.56055,28.39316c-2.07571,3.40555 -4.58147,6.39856 -6.94465,8.09167c-0.90222,0.64641 -1.71986,1.55209 -2.5862,2.47774c-0.26317,0.28119 -0.52513,0.57115 -0.79106,0.83313c-0.15643,0.1541 -0.57873,0.06512 -0.4755,0.41459c0.12021,0.40696 0.39226,-0.16141 0.58218,-0.05345c0.31494,0.17903 0.61107,0.55038 0.90538,0.89907c1.70458,2.01963 3.21548,5.12217 4.95611,6.87421c2.57898,2.61587 5.28542,5.89533 7.73177,9.32139c1.36582,1.91281 2.58954,4.71227 3.98642,6.44951c0.25542,0.31766 0.52466,0.56204 0.799,0.77962c4.9012,-8.66127 9.91995,-17.21778 14.55181,-26.79292c1.22244,-2.5258 2.42801,-5.57874 3.74585,-7.73013c1.05923,-1.72921 2.33332,-2.52052 3.39108,-4.25103c1.28667,-2.10501 2.46196,-5.12024 3.65539,-7.59232c0.87917,-1.82112 2.36533,-3.01437 3.0797,-5.23355c0.54176,-1.68297 0.98119,-4.33716 1.47877,-6.20829c0.15291,-0.48557 0.42055,-0.83066 0.45874,-1.45671c0.05784,-0.94836 -0.76493,-2.71812 -0.887,-3.03607c-0.67442,-1.75663 -1.26633,-3.32475 -2.05303,-4.71809c-1.28974,-2.28428 -2.77161,-3.43543 -4.17264,-5.15899c-2.04728,-2.51856 -4.0393,-5.37891 -6.01734,-8.28561c-0.33842,0.70274 -0.6789,1.3953 -1.02174,2.07555zM34.92027,223.1283c-0.87506,1.19878 -1.78942,1.43924 -2.66039,2.49562c-0.83189,1.00898 -0.67565,1.81006 -1.57934,2.78521c-0.41349,0.44618 -1.42657,0.55501 -1.87455,0.93936c-1.16139,0.99644 -2.22617,3.01218 -3.36015,4.22464c-2.90336,3.1043 -5.78658,5.75008 -8.57017,9.66217c-1.11622,1.56749 -2.13661,3.57361 -3.29291,4.93189c-0.29082,0.34161 -0.57606,0.74969 -0.8856,0.9411c-0.18884,0.11677 -0.51735,-0.52225 -0.5814,-0.03397c-0.06098,0.46489 0.36642,0.19466 0.53127,0.41613c0.26999,0.3627 0.50696,0.87885 0.76027,1.31895c0.51496,0.89466 1.04033,1.74818 1.5751,2.55588c3.00449,4.53796 6.13462,8.12025 9.10188,12.86251c2.44378,3.90563 4.91566,7.678 7.38785,11.45228c2.48421,-5.62099 5.21575,-10.95829 7.18591,-17.86205c1.34633,-4.69564 3.27895,-7.81964 4.81108,-12.04594c1.29044,-3.55963 2.43672,-7.59087 3.70135,-11.23461c0.84607,-2.43776 1.525,-4.8281 2.16154,-7.61342c0.10529,-0.4607 0.47367,-0.73526 0.39391,-1.23113c-0.07977,-0.49587 -0.40811,0.02824 -0.60575,-0.08579c-0.60223,-0.34748 -1.17593,-0.98612 -1.77055,-1.41694c-2.93291,-2.12644 -5.85351,-4.83761 -8.59711,-8.3731c-1.27521,1.77874 -2.55281,3.54721 -3.83223,5.31119zM42.31545,317.89367c3.34474,-6.0671 7.04707,-10.98954 10.45409,-16.62702c0.79275,-1.31173 1.8138,-1.69077 2.64107,-2.8377c0.48006,-0.66556 0.94742,-1.45925 1.40844,-2.29113c-0.96957,0.12413 -2.00069,-0.16041 -2.7244,-0.13434c-2.18758,0.07879 -4.3757,0.05853 -6.56344,0.05866c-0.88602,0.00005 -2.04422,0.46453 -2.90755,-0.0271c-1.15043,-0.65512 -2.39099,-2.98498 -3.44312,-4.3748c-1.46862,-0.99631 -3.15347,-1.58826 -4.55246,-3.13007c-1.41278,-1.55702 -2.77301,-4.32587 -4.10201,-6.35919c-0.31512,-0.48212 -0.63033,-0.96376 -0.94557,-1.4452c-2.26836,5.26417 -4.34524,11.09967 -6.47096,16.77119c-2.26273,6.03707 -4.71127,11.25598 -7.55304,15.20516c-1.09362,1.51978 -2.0388,3.74977 -3.12943,5.23267c-0.17738,0.24117 -0.51658,-0.05707 -0.57261,0.45273c-0.04752,0.43237 0.30496,0.38852 0.46189,0.55472c0.2616,0.27706 0.52919,0.51209 0.79295,0.77423c1.17183,1.16465 2.3479,2.27791 3.51539,3.47653c2.33207,2.39426 4.59127,5.21365 6.92168,7.64957c2.03805,2.13034 4.20757,3.98498 6.21246,6.43182c3.61606,-5.94766 7.05458,-13.02441 10.55663,-19.38074zM46.89257,203.35857c1.62634,-2.39058 3.37274,-4.26285 4.91845,-7.0102c0.75401,-1.33736 1.58447,-3.28719 2.4117,-4.25503c0.84336,-0.98672 1.88989,-0.76919 2.72541,-1.77569c0.15962,-0.19228 0.32031,-0.42644 0.48113,-0.68825c-0.61097,-0.07263 -1.20552,-0.20881 -1.64079,-0.1987c-1.28458,0.02982 -2.6613,0.18486 -3.88344,-1.13247c-0.85063,-0.91688 -1.65509,-2.78867 -2.45045,-4.01681c-2.17495,-3.35843 -4.38245,-6.40734 -6.50132,-10.03977c-1.59367,-2.73869 -2.88536,-6.44973 -4.38453,-9.52059c-1.98834,-4.07286 -4.1665,-7.44894 -6.0669,-11.85529c-1.63416,-3.78905 -2.98741,-8.47571 -4.76198,-11.81047c-0.96362,-1.81686 -1.95332,-4.24999 -3.00273,-5.67728c-0.39658,-0.53939 -0.83394,-0.87435 -1.27436,-1.19432c-0.42973,0.76096 -0.85848,1.5229 -1.28593,2.28656c-5.42084,9.68467 -10.87213,19.35083 -15.98271,30.18527c-0.59126,1.87378 -1.15719,4.02433 -1.81624,5.72653c-0.66435,1.71589 -1.54886,2.86835 -2.19405,4.63068c-0.42258,1.15426 -0.71045,2.61352 -1.08965,3.87051c-0.15133,0.50164 -0.40888,0.83626 -0.47653,1.45445c-0.19514,1.78334 1.38508,2.68269 1.72097,3.08697c2.55199,3.07156 5.28142,4.79668 7.93844,7.0664c2.96755,2.53499 6.04231,3.84733 9.07019,5.77743c3.34606,2.13293 6.56915,4.89914 9.97896,6.22817c3.4528,1.36818 6.35515,6.45637 9.41251,10.518c2.73118,-3.81652 5.45101,-7.68315 8.15386,-11.65609z" fill="#101010" stroke="none" stroke-width="0.5" stroke-linecap="butt"/><path d="M597.72037,-29.64513c0.03029,-1.24289 0.31312,-1.10977 0.31312,-1.10977l0.22443,0.10565c1.01256,0.55471 1.70362,3.98413 2.49039,6.72608c3.2233,10.2757 6.51083,20.02984 9.8235,29.73976c1.47336,4.4348 2.94887,8.83332 4.43158,13.18156c0.76537,-2.05536 1.52379,-4.15431 2.25453,-6.39342c1.703,-5.21828 3.30508,-11.23864 4.94817,-16.81832c1.58404,-4.52138 3.23623,-8.76889 4.77097,-13.60514c1.7125,-5.39639 3.24053,-11.51521 5.04636,-16.35199l0.34093,-0.91315c0,0 0.24289,-0.65055 0.39092,0.41682c0.14804,1.06737 -0.09485,1.71792 -0.09485,1.71792l-0.34093,0.91315c-1.79311,4.8027 -3.31014,10.88942 -5.01093,16.24891c-1.53548,4.83859 -3.18769,9.09506 -4.77334,13.61257c-1.64312,5.58966 -3.24773,11.608 -4.95193,16.82994c-0.66847,2.0483 -1.35985,3.98022 -2.05856,5.86866c1.65333,4.82952 3.31634,9.59463 4.99605,14.27602c1.10507,3.08482 2.34036,5.34005 3.52153,7.81044c0.99869,2.08874 1.99869,4.69172 3.06893,5.93254c0.72335,0.83864 1.51022,1.42135 2.21021,2.57483c0.24219,0.39909 0.59935,0.39187 0.70438,1.43062c0.41893,4.14314 -0.81132,5.22933 -1.34131,6.10842c-3.69532,6.12359 -7.47839,12.14755 -10.97067,20.27987c-0.9992,2.3268 -1.99713,5.14508 -3.03895,7.07104c-1.01754,1.88108 -2.08788,3.4651 -3.18109,4.78504c1.47464,1.80556 2.81249,4.45513 4.23098,7.2419c0.68938,1.35434 1.44471,2.5006 2.10147,4.13468c1.31365,3.26852 2.47653,7.84988 3.75698,11.38399c1.10545,3.05213 2.19601,6.60393 3.3524,9.26055c0.12813,0.29436 0.97935,1.75205 1.07287,2.026c0.62575,1.83304 1.03328,5.06646 1.63865,7.01848c0.44781,1.44395 2.26404,3.40228 1.80827,7.49799c-0.11385,1.02304 -0.51034,0.40588 -0.76196,0.67827c-0.53633,0.58059 -1.06791,1.45209 -1.59607,2.16497c-2.46816,3.33139 -4.93102,6.86522 -7.36261,10.73557c2.09245,6.54628 4.18227,13.11598 6.3259,19.29928c0.31336,0.90711 0.56758,2.17982 0.88642,3.04926c1.0179,2.77569 2.53436,4.1747 3.68801,5.42788c0.27854,0.30256 1.79096,1.32338 1.86195,2.56801c0.07333,1.28565 -0.25782,2.49264 -0.48832,3.34748c-0.13732,0.50928 -0.93426,0.94433 -1.12742,1.35402c-0.4786,1.01511 -0.89141,3.1268 -1.33896,4.39813c-0.47835,1.35885 -1.009,2.4746 -1.50666,3.69361c-3.48676,8.54084 -6.94328,17.14459 -10.5021,25.0984c-2.36375,5.2829 -4.525,12.12635 -6.83108,17.8621c-0.87015,2.16425 -1.76755,4.14769 -2.66006,6.1512c3.2068,7.34612 6.44387,14.29614 9.7129,21.12519c1.93395,4.50373 3.84922,11.22227 5.98083,13.80093c1.27228,1.5391 2.63109,0.8549 3.90853,1.92741l0.00945,-0.36127l0.56166,0.28375c0.14348,0.06381 0.25546,0.59623 0.25546,1.24359c0,0.53355 -0.07607,0.98903 -0.18315,1.16841l-0.52064,0.93313c-0.71333,1.26576 -1.22721,3.46411 -1.8798,5.19337c-0.80961,2.14533 -1.72866,3.4944 -2.53719,5.64584c-1.92364,5.1187 -3.73178,11.50644 -5.59378,17.07706c-1.38664,4.14847 -2.91224,7.94995 -4.21292,12.5985c-0.58411,2.08758 -1.05942,4.77188 -1.63147,6.92541c-0.60784,2.28828 -1.25349,4.42568 -1.90535,6.52639c1.96404,5.46142 4.05492,10.27453 6.05594,15.40206c1.34152,3.43758 2.41261,8.07011 3.62536,12.28927c1.49941,5.21643 3.12764,9.59576 4.48331,15.55331c0,0 0.20113,0.88388 0,1.76777c-0.20113,0.88388 -0.40227,0 -0.40227,0c-1.33911,-5.88477 -2.95269,-10.20695 -4.43416,-15.36097c-1.19086,-4.14301 -2.24224,-8.71605 -3.55881,-12.08972c-2.07147,-5.30804 -4.23802,-10.28267 -6.26284,-15.97886c-0.41698,1.33428 -0.83326,2.66532 -1.24059,4.02287c-1.51001,5.02853 -2.77796,11.39 -4.27889,16.45345c-1.63492,5.51548 -3.63257,9.22184 -5.14846,15.38179c-1.6856,6.82621 -3.34178,13.62159 -5.14696,19.8197c-0.92877,3.18893 -1.99668,6.08637 -3.21233,6.13588c0,0 -0.28444,0 -0.28444,-1.25c0,-1.25 0.28444,-1.25 0.28444,-1.25c1.07545,0.05358 2.04652,-2.80567 2.86208,-5.60588c1.79292,-6.15598 3.43745,-12.90793 5.1117,-19.68813c1.53594,-6.20052 3.53681,-9.95752 5.18757,-15.52642c1.50166,-5.06589 2.77142,-11.42555 4.28154,-16.46234c0.35316,-1.17701 0.71318,-2.33376 1.07457,-3.49004c-0.03686,-0.10739 -0.07366,-0.21506 -0.1104,-0.32302c-1.10064,-3.23366 -2.13271,-7.00893 -3.21639,-10.36692c-3.26092,-10.10466 -6.86372,-17.77078 -10.13373,-27.72089c-3.26231,-9.93456 -6.77093,-18.10939 -10.30872,-26.04364c-0.22062,-0.74964 -0.67384,-1.0245 -0.66186,-2.2489c0.01266,-1.29393 0.4395,-1.78848 0.70672,-2.3347c0.44971,-0.91924 1.28811,-0.69343 1.77618,-0.73439c1.47339,-0.12365 3.06121,0.74258 4.52044,-0.07319c1.48275,-0.82892 2.92715,-3.64003 4.4056,-4.76331c1.49085,-1.13005 2.82547,-3.93524 4.22611,-6.41689c2.26828,-4.01891 4.43562,-8.2373 6.60282,-13.20286c-0.00294,-0.00682 -0.00588,-0.01364 -0.00882,-0.02047c-3.51521,-8.15941 -7.1891,-14.87903 -10.85668,-21.57547c-1.91743,-3.50094 -3.80369,-7.56118 -5.7487,-10.74626c-1.77343,-2.90411 -3.71477,-4.32155 -5.41361,-8.01378c-0.83035,-1.81092 -1.6446,-3.93638 -2.5372,-5.05378l-0.54073,-0.68243c-0.122,-0.14082 -0.21199,-0.62876 -0.21199,-1.20908c0,-0.62446 0.1042,-1.14196 0.24036,-1.23507l0.55569,-0.42561l0.01079,0.27214c0.91971,-1.17882 1.78675,-1.24733 2.81052,-1.86253c0.93584,-0.56236 1.84223,-2.06408 2.77739,-2.65625c1.70867,-1.08198 3.3245,-1.60558 4.99971,-3.64762c2.54956,-3.10784 5.19511,-5.03754 7.72284,-8.40913c1.25545,-1.67456 2.48408,-4.08063 3.7135,-6.0989c1.2441,-2.04237 2.48068,-4.27439 3.73915,-6.13766c2.50832,-3.71378 5.12027,-6.12047 7.5746,-10.50454c0.95607,-1.70779 1.91937,-3.35064 2.88822,-4.93697c-0.8568,-2.67192 -1.71537,-5.33025 -2.57957,-7.94703c-3.29408,-9.97443 -6.73263,-18.07122 -10.43775,-24.66741c-2.11998,-3.77418 -4.18139,-8.05374 -6.20675,-12.73964c-1.35797,-3.14182 -2.62281,-6.65282 -4.065,-9.00009l-0.03172,-0.17636l-0.00944,0.04905l-0.43289,-1.60843c-0.06253,-0.22929 -0.10233,-0.57435 -0.10233,-0.96024c0,-0.68272 0.12455,-1.23759 0.27924,-1.24979l0.56803,-0.05217l0.0011,0.23153c1.12498,-0.60601 2.28414,-0.24021 3.41815,-0.24057c2.47119,-0.00078 4.8905,0.11209 7.34531,-1.18574c0.88364,-0.46627 1.78367,-1.07533 2.68321,-1.84498c-0.51897,-0.5006 -1.0343,-1.0488 -1.53249,-1.7455c-1.43282,-2.00375 -2.76082,-5.72478 -4.20823,-7.49566c-1.23984,-1.51693 -2.62945,-1.84737 -3.90106,-2.77595c-1.48509,-1.08447 -3.05731,-1.64845 -4.51405,-3.30527c-0.90359,-1.0277 -1.79665,-2.79577 -2.67603,-4.17851l-0.53782,-0.4173c-0.13587,-0.09418 -0.23978,-0.6111 -0.23978,-1.23468c0,-0.68554 0.12558,-1.24218 0.28116,-1.24992l0.56837,-0.03297l0.00091,0.3023c0.72081,-0.55008 1.45141,-0.75821 2.16704,-1.6919c2.67473,-3.48977 5.24383,-9.8582 7.72873,-15.31198c3.56975,-7.83476 6.97692,-16.55691 10.35612,-25.85593c0.66519,-1.8305 1.34289,-3.61135 2.01894,-5.40855c-1.40944,-4.14 -2.81259,-8.3248 -4.21378,-12.54252c-3.32131,-9.73485 -6.61761,-19.51363 -9.84877,-29.81932c-0.66446,-2.31459 -1.35306,-5.91671 -2.20713,-6.23196l-0.22444,-0.10564c0,0 -0.28283,-0.13313 -0.25253,-1.37602zM606.33994,95.15922c-2.66314,1.40797 -5.30145,1.20298 -7.98211,1.20382c-0.62864,0.0002 -1.5289,0.59701 -2.28103,0.28276c1.21533,2.22443 2.31746,5.29976 3.48975,8.01197c2.0087,4.64734 4.05283,8.89164 6.15534,12.63471c3.74312,6.66383 7.21915,14.84939 10.54693,24.92587c0.973,2.94622 1.93885,5.94526 2.90307,8.95706c2.56019,-4.11651 5.15647,-7.85344 7.75848,-11.3655c0.49901,-0.67353 1.14848,-2.07434 1.66683,-2.2391c0.12954,-0.04118 0.25402,0.67757 0.37481,0.46783c0.08216,-0.14267 -0.12276,-0.57031 -0.19781,-0.77517c-0.2961,-0.80829 -0.62182,-1.38592 -0.92856,-2.11352c-0.5642,-1.33831 -0.92368,-2.92637 -1.37954,-4.88237c-0.61407,-2.63489 -1.04751,-3.52306 -1.79401,-5.23803c-1.16998,-2.68784 -2.27315,-6.27148 -3.39149,-9.3592c-1.27243,-3.51432 -2.42926,-8.07744 -3.73463,-11.32536c-0.6409,-1.59464 -1.38053,-2.70604 -2.05336,-4.02787c-1.5752,-3.09463 -3.04505,-6.02547 -4.72645,-7.76588c-0.14863,-0.15385 -0.29829,-0.30171 -0.44865,-0.44611c-1.32547,1.36164 -2.6685,2.36072 -3.97757,3.0541zM607.16653,247.17073c-2.21422,5.095 -4.42864,9.41218 -6.74606,13.51817c-1.43931,2.55016 -2.80909,5.39985 -4.34214,6.56188c-1.48793,1.12507 -2.93752,3.94506 -4.4305,4.77969c-0.9265,0.51795 -1.94491,0.02731 -2.87975,0.03579c-0.74743,0.00678 -1.50945,-0.13808 -2.25527,0.10073c-0.36382,0.11649 -0.65611,0.44711 -1.01253,0.56385c3.55793,7.97983 7.08602,16.20813 10.36702,26.19961c3.26906,9.9633 6.87555,17.62464 10.13754,27.7326c1.07978,3.34594 2.10809,7.10985 3.20473,10.33174c0.09474,0.27835 0.18986,0.55481 0.28534,0.8295c0.69999,-2.24599 1.39575,-4.52377 2.04738,-6.97689c0.57585,-2.16787 1.05437,-4.86396 1.64263,-6.96637c1.31351,-4.69444 2.85152,-8.53648 4.25171,-12.7255c1.87043,-5.59586 3.68678,-12.00678 5.61927,-17.14902c0.80901,-2.15273 1.72832,-3.50248 2.53809,-5.64823c0.48578,-1.28725 0.89803,-2.7894 1.36493,-4.03231c-0.55516,0.00439 -1.15652,-0.59873 -1.63871,-0.85809c-0.55274,-0.29731 -1.19892,-0.2983 -1.73496,-0.94675c-2.17375,-2.62964 -4.11377,-9.3836 -6.08521,-13.9773c-3.39308,-7.08382 -6.75109,-14.30535 -10.07685,-21.96049c-0.08567,0.19512 -0.17123,0.39086 -0.25664,0.5874zM610.42234,236.85777c2.31356,-5.75437 4.48187,-12.6145 6.8534,-17.91478c3.5524,-7.93947 7.00252,-16.52823 10.48301,-25.05371c0.48682,-1.19246 1.00684,-2.28016 1.4748,-3.60948c0.47085,-1.33753 0.89607,-3.48016 1.40051,-4.55007c0.18748,-0.39763 0.84082,-0.91559 1.07158,-1.21811c0.08664,-0.11358 0.33291,-0.28766 0.25079,-0.45386c-0.10699,-0.21655 -0.23113,0.29725 -0.34855,0.25601c-0.70527,-0.24771 -1.55347,-1.47496 -2.22962,-2.39424c-0.84169,-1.14434 -1.97945,-2.4911 -2.72942,-4.50688c-0.32477,-0.87292 -0.58169,-2.17255 -0.90032,-3.0881c-2.25828,-6.51404 -4.45696,-13.45604 -6.66181,-20.34843c-1.08588,1.75977 -2.16502,3.58937 -3.23511,5.50083c-2.4655,4.40401 -5.0876,6.82726 -7.60718,10.5577c-1.2526,1.85458 -2.4834,4.07757 -3.72171,6.11044c-1.24067,2.03674 -2.48036,4.45926 -3.74735,6.14921c-2.53232,3.3777 -5.18193,5.31257 -7.73601,8.42593c-1.69902,2.07107 -3.3381,2.61594 -5.07063,3.71303c-1.13732,0.72018 -2.21891,2.51631 -3.37157,2.81203c-0.43324,0.11115 -1.02141,0.80664 -1.55907,1.07647c0.68533,1.20123 1.33526,2.80586 1.99756,4.25028c1.6759,3.66863 3.60689,5.04073 5.35936,7.91052c1.95168,3.19601 3.84434,7.26733 5.76832,10.78024c3.68373,6.72592 7.37342,13.47824 10.9041,21.67355c0.11928,0.27686 0.2386,0.55313 0.35796,0.82883c1.0028,-2.26524 2.01731,-4.47084 2.99695,-6.90742zM614.45432,83.70345c1.0259,-1.89652 2.0091,-4.68411 2.99317,-6.97566c3.51364,-8.18204 7.31841,-14.24902 11.03631,-20.41005c0.00389,-0.00644 1.25121,-1.57719 1.04041,-2.59004c-0.20903,-1.00434 -0.60956,-0.49848 -0.90896,-0.84688c-0.73027,-0.84977 -1.5159,-1.45351 -2.22474,-2.59632c-0.88468,-1.4263 -1.74133,-3.63602 -2.59267,-5.41658c-1.20262,-2.51526 -2.4556,-4.82279 -3.58174,-7.95661c-1.75787,-4.89923 -3.49753,-9.88994 -5.22693,-14.95016c-0.7489,1.99766 -1.50162,3.96694 -2.23917,5.99657c-3.39457,9.34136 -6.81789,18.1033 -10.40386,25.97366c-2.3943,5.25492 -4.78931,10.04368 -7.26772,14.48402c-0.41947,0.75152 -1.08213,1.8489 -1.71789,2.31621c0.5232,0.88866 1.05041,1.75397 1.58139,2.35788c1.44004,1.63783 2.99652,2.18718 4.46476,3.25935c1.29212,0.94356 2.7002,1.29191 3.96039,2.83373c1.45523,1.78045 2.78839,5.50831 4.22816,7.52177c0.87675,1.22611 1.80831,1.98217 2.71752,2.83946c1.42613,-1.49192 2.82942,-3.41465 4.14158,-5.84037z" fill="#101010" stroke="none" stroke-width="0.5" stroke-linecap="butt"/><path d="M35.69521,-55.13514v-60.06006h654.65465v60.06006z" fill="#ff8400" stroke="none" stroke-width="0" stroke-linecap="butt"/><path d="M-49.89037,483.90389v-69.06907h863.36336v69.06907z" fill="#ff8400" stroke="none" stroke-width="0" stroke-linecap="butt"/></g></g></svg>