<svg version="1.1" xmlns="http://www.w3.org/2000/svg" xmlns:xlink="http://www.w3.org/1999/xlink" width="292.81605" height="254.67373" viewBox="0,0,292.81605,254.67373"><g transform="translate(-173.59197,-52.66314)"><g data-paper-data="{&quot;isPaintingLayer&quot;:true}" fill-rule="nonzero" stroke-linejoin="miter" stroke-miterlimit="10" stroke-dasharray="" stroke-dashoffset="0" style="mix-blend-mode: normal"><path d="M387,180c0,35.89851 -29.99692,65 -67,65c-37.00308,0 -67,-29.10149 -67,-65c0,-35.89851 29.99692,-65 67,-65c37.00308,0 67,29.10149 67,65z" fill-opacity="0.00784" fill="#c47a4f" stroke="none" stroke-width="0" stroke-linecap="butt"/><path d="M173.59197,184v-8h292.81605v8z" fill-opacity="0.00784" fill="#c47a4f" stroke="none" stroke-width="0" stroke-linecap="butt"/><path d="M316.33211,52.66314l7.80929,0.2337l-0.47352,254.44003l-7.80929,-0.2337z" fill-opacity="0.00784" fill="#c47a4f" stroke="none" stroke-width="0" stroke-linecap="butt"/><path d="M295.23758,212.58265v-50.29278h51.4272v50.29278z" fill="#e7a076" stroke="#ffd4a6" stroke-width="5" stroke-linecap="butt"/><path d="M286.01789,152.74568c-0.28748,-0.90058 0.6131,-1.18806 0.6131,-1.18806l1.60772,-0.50975c3.11363,-0.44665 6.05027,-1.86451 9.17455,-2.17741c1.98129,-0.19843 3.63743,0.38575 5.53856,0.38575c0.79612,0.26538 1.69693,0.13407 2.47919,0.43789c0.33233,0.12908 0.43087,0.61064 0.75628,0.75628c0.59665,0.26705 2.81439,-0.07197 3.41965,-0.07197c1.49322,0 3.414,0.33657 4.85257,-0.03302c1.04262,-0.26786 1.86048,-0.93119 2.93697,-1.08919c1.97566,-0.28999 4.08566,-0.13619 6.07095,-0.38127c2.7791,-0.34306 5.16311,-1.14387 8.05104,-1.14328c5.00657,-0.21388 9.80091,-0.77337 14.72375,0.45308c2.25113,0.56083 3.68002,1.79523 5.70017,2.64379c1.70094,0.71447 3.87114,1.88851 5.22253,3.23005c0.29392,0.29178 0.33874,0.79228 0.66164,1.05161c0.34968,0.28084 0.98078,0.1316 1.25423,0.48709c0.41001,0.53302 0.40109,1.28373 0.60164,1.9256c0.5656,2.30377 0.34168,4.17875 0.01531,6.43529c-0.75266,5.204 -1.46619,11.09585 -7.58754,12.12163c-0.85454,0.1432 -1.71805,0.52653 -2.57171,0.37814c-2.25201,-0.39148 -3.36714,-2.84164 -5.06335,-4.19585c-3.33667,0.07777 -6.23267,3.86864 -9.53272,3.82992c-1.36702,-0.01604 -3.71057,-1.61468 -4.53269,-2.64037c-0.19978,-0.24926 0.07273,-0.74548 -0.17962,-0.94134c-0.22822,-0.17712 -0.58367,0.23535 -0.85561,0.13788c-0.8933,-0.3202 -1.27464,-1.43353 -2.06283,-1.96201c-0.55203,-0.37014 -1.72117,0.72521 -1.90439,0.81789c-2.64649,1.33872 -5.34783,3.1405 -8.35635,2.9342c-0.23201,-0.39882 -1.39297,-2.8328 -2.3767,-2.89615c-0.63115,-0.04065 -0.81405,0.977 -1.29908,1.38289c-1.71267,1.43324 -3.32525,3.04841 -5.11378,4.38449c-0.65786,0.49144 -1.20465,1.25457 -2.00725,1.42816c-0.39126,0.08462 -0.50576,-0.89244 -0.89533,-0.80036c-0.32836,0.07762 0.10055,0.69047 -0.00101,1.01224c-0.1946,0.61653 -0.57633,1.15748 -0.86626,1.73534c-0.80513,1.60474 -3.04159,5.64097 -5.00121,5.99049c-0.67816,0.12096 -1.26528,-0.56709 -1.82692,-0.96595c-1.34036,-0.95188 -2.02156,-1.99506 -3.63439,-2.58533c-0.41275,-0.20836 -0.77987,-0.56453 -1.23825,-0.6251c-0.6108,-0.08071 -0.59565,1.0859 -0.98162,1.56612c-1.11089,1.38217 -2.9187,4.37148 -4.61668,4.84314c-2.2874,0.63539 -3.48369,-1.82763 -4.48139,-3.43292c-2.97332,-4.78407 -3.45713,-9.70172 -1.78911,-15.14078c0.61026,-0.98235 0.66348,-2.2177 0.91693,-3.34605c0.41986,-1.86917 1.46117,-4.51791 2.33969,-6.2484c0.37923,-0.747 1.12183,-1.25689 1.55763,-1.97236c0.4147,-0.68084 0.34832,-1.58395 0.75628,-2.26884c0.9502,-1.59521 2.50437,-2.95897 4.26308,-4.04194c-0.69204,0.18004 -1.38871,0.33343 -2.09418,0.43378l-1.45541,0.46804c0,0 -0.90058,0.28748 -1.18805,-0.6131z" fill="#f300ff" stroke="none" stroke-width="0.5" stroke-linecap="butt"/><path d="M319.19186,185.75927c0,-0.52211 0.42325,-0.94536 0.94535,-0.94536c0.52211,0 0.94535,0.42325 0.94535,0.94536c0,0.52211 -0.42325,0.94536 -0.94535,0.94536c-0.52211,0 -0.94535,-0.42325 -0.94535,-0.94536z" fill="#ffd4a6" stroke="none" stroke-width="0.5" stroke-linecap="butt"/><path d="M331.7282,186.86905c0,-0.52211 0.42325,-0.94535 0.94535,-0.94535c0.52211,0 0.94536,0.42324 0.94536,0.94535c0,0.52211 -0.42325,0.94536 -0.94536,0.94536c-0.52211,0 -0.94535,-0.42325 -0.94535,-0.94536z" fill="#ffd4a6" stroke="none" stroke-width="0.5" stroke-linecap="butt"/><path d="M340.23638,196.88979c0.94536,0 0.94536,0.94535 0.94536,0.94535l-0.14283,1.63407c-1.69947,0.96609 -3.58705,1.57153 -5.24153,2.58795c-0.59375,0.36477 -1.04696,0.98072 -1.70523,1.20933c-2.22057,0.77116 -5.51139,0.42984 -7.84699,0.42984c-7.30044,0 -14.04696,-4.14134 -20.4365,-7.27117c-1.88095,-0.92136 -3.67481,-1.74253 -5.18928,-3.21553c0,0 -0.66846,-0.66846 0,-1.33693c0.66846,-0.66846 1.33693,0 1.33693,0c1.2725,1.31976 3.00562,2.03172 4.64239,2.83473c1.57512,0.77275 3.0196,1.87993 4.57916,2.6673c2.60308,1.3142 5.44645,1.76548 8.13318,2.82616c2.66058,1.05035 4.02863,1.60474 6.93412,1.60474c2.11114,0 5.23092,0.37315 7.22487,-0.32456c0.53225,-0.18624 0.85997,-0.73607 1.33804,-1.03512c1.41717,-0.8865 3.06509,-1.40951 4.62579,-1.97602l-0.14283,-0.63478c0,0 0,-0.94535 0.94535,-0.94535z" fill="#ffd4a6" stroke="none" stroke-width="0.5" stroke-linecap="butt"/><g><path d="M355.54045,196.16593c0,1.25 -1.25,1.25 -1.25,1.25h-0.28571c-3.72099,0 -7.428,0.14286 -11.14286,0.14286c0,0 -1.25,0 -1.25,-1.25c0,-1.25 1.25,-1.25 1.25,-1.25c3.71447,0 7.42206,-0.14286 11.14286,-0.14286h0.28571c0,0 1.25,0 1.25,1.25z" fill="#b4b4b4" stroke="none" stroke-width="0.5" stroke-linecap="butt"/><path d="M403.40718,195.11668c-0.55901,1.11803 -1.67705,0.55901 -1.67705,0.55901l-0.10765,-0.20136c-3.55556,0 -7.11111,0 -10.66666,0c0,0 -0.03982,0 -0.10525,-0.00711c-0.36953,0.34044 -0.89475,0.34045 -0.89475,0.34045h-1c-8.25009,0 -16.46178,0.33333 -24.66667,0.33333c-0.5837,0 -1.17101,-0.02233 -1.76065,-0.05736c-0.12133,1.05736 -1.23935,1.05736 -1.23935,1.05736c-2.33333,0 -5,0 -7.33333,0c0,0 -1.21019,0 -1.24905,-1.19076c-1.5742,0.23939 -3.13247,0.52057 -4.75095,0.5241c-2.21329,0.00483 -5.34832,-0.82005 -6.66667,1.16666c0,0 -0.75,1 -1.75,0.25c-1,-0.75 -0.25,-1.75 -0.25,-1.75c2.29042,-2.84374 5.29989,-2.17471 8.66667,-2.16666c1.87721,0.00449 3.67399,-0.43365 5.51394,-0.6573c3.58056,-0.43522 7.23515,0.32396 10.81939,0.32396c8.20387,0 16.41712,-0.33333 24.66667,-0.33333h1c0,0 0.03983,-0.00001 0.10526,0.0071c0.36953,-0.34044 0.89474,-0.34044 0.89474,-0.34044c3.55556,0 7.11111,0 10.66666,0l1.22568,0.4653c0,0 1.11804,0.55902 0.55902,1.67705z" fill="#b4b4b4" stroke="none" stroke-width="0.5" stroke-linecap="butt"/><path d="M333.24753,187.72864c-0.0328,0.00188 -0.06654,0.00284 -0.10125,0.00284c-1.25,0 -1.25,-1.25 -1.25,-1.25l0.01701,-0.87216c0.35856,-1.86542 0.10402,-2.98293 2.08797,-3.94935c1.7529,-0.85387 5.47931,0.01321 7.29775,0.24755c4.9782,0.64154 9.60892,-1.51515 14.51394,-1.00937c0.74513,0.07683 1.68754,-0.16357 2.21722,0.36611c0.52968,0.52968 0.24408,1.47815 0.36612,2.21722c0,1.03453 0.35074,4.16703 -0.36612,4.88389c-0.90384,0.90384 -4.95356,0.37082 -6.21722,0.36611c-5.7115,-0.02128 -11.57637,0 -17.33333,0c0,0 -1.07925,0 -1.23209,-1.00284z" fill="#919191" stroke="none" stroke-width="0.5" stroke-linecap="butt"/><path d="M337.81295,199.89814c0.95853,0 1.18203,0.73502 1.23415,1.0778c0.80344,0.92986 1.4641,2.10121 2.21468,2.86381c0.3741,0.3801 1.07954,0.21962 1.59732,0.09183c2.17639,-0.53716 1.70385,-2.75888 1.70385,-4.4501c0,0 0,-1.25 1.25,-1.25c1.25,0 1.25,1.25 1.25,1.25c0,1.45918 0.27417,3.28164 -0.49559,4.61587c-1.21447,2.10507 -4.78254,3.28023 -6.8699,1.69251c-0.75805,-0.57659 -1.96603,-2.62214 -2.76839,-3.42451l-0.36612,-1.21721c0,0 0,-1.25 1.25,-1.25z" fill="#ffd4a6" stroke="none" stroke-width="0.5" stroke-linecap="butt"/><path d="M333.37197,201.59951l-1.60516,0.7652c-3.45117,0.07121 -6.81243,0.36677 -10.28719,0.36677c-0.72157,0 -2.90535,-0.39577 -3.52165,-0.09515c-1.47818,0.72104 -3.11828,1.71507 -4.72619,2.53246c-0.15825,0.10414 -0.32786,0.161 -0.46589,0.19204c-0.18908,0.04676 -0.45359,0.07653 -0.71835,-0.01092c-1.27289,1.288 -2.77759,2.86938 -4.39104,3.60604c-0.9117,0.41626 -1.96338,0.58434 -2.76021,1.19221c-0.77273,0.58948 -2.73487,2.25368 -3.81195,1.85252c-2.36364,-0.88035 -1.52693,-5.81922 -1.51202,-7.69979c-1.15388,-4.61552 -1.27378,-9.33121 -0.31842,-14.06454c0.12241,-0.60647 0.82817,-4.10133 0.9019,-4.1515c0.03183,-0.02167 3.00937,0.69572 3.627,0.85064c3.02949,0.75986 6.22154,0.88872 9.33333,1.66666c3.12955,0.78239 6.12867,1.91179 9.18289,2.30538c5.78315,0.74526 10.92943,-0.0979 16.10919,2.19295l0.04125,-0.165l1.30796,0.32699c0.55665,0.12633 0.9722,0.62414 0.9722,1.21902c0,0.49901 -0.2924,0.92971 -0.7152,1.13014l-1.02347,0.51174c-1.02165,2.37516 -2.17122,4.75085 -4.54149,5.5708c0,0 -0.54692,0.13673 -0.99801,-0.14076c-0.04874,0.03074 -0.07948,0.04611 -0.07948,0.04611z" fill="#835b43" stroke="none" stroke-width="0.5" stroke-linecap="butt"/><path d="M333.47962,201.48147l-15,1l-19,11.66666l-0.33333,-28.33333l41.33333,7.66666l-4.33333,6.66666l5.33333,-2.33334l62,-1.66666l-0.33333,-4l-62.33333,1.66666l-0.33333,-5.33333l18.66667,-0.33334l-0.33333,-7.33334l-26.66667,1l0.33333,6.33334h22" fill="none" stroke="#ffd4a6" stroke-width="2.5" stroke-linecap="round"/></g><path d="M329.44728,176.67399c0.88388,0.88388 0,1.76777 0,1.76777l-0.54678,0.45607c-0.73741,1.47383 -1.32629,2.91994 -1.94683,4.37626l0.09669,0.02149l-0.38513,1.73307c-0.11471,0.57199 -0.61982,1.00287 -1.22557,1.00287c-0.39906,0 -0.75444,-0.187 -0.9833,-0.47815l-0.77372,-0.96715l0.0246,-0.01968l-0.08234,-0.05854c-0.92926,-1.64461 -2.17848,-2.84701 -3.65171,-4.02169c0,0 -0.97609,-0.78087 -0.19522,-1.75695c0.78087,-0.97609 1.75695,-0.19522 1.75695,-0.19522c1.22066,0.97944 2.3167,1.98851 3.23592,3.18934c0.21495,-1.35865 1.29476,-2.7452 1.89357,-3.94367l1.01508,-1.1058c0,0 0.88388,-0.88388 1.76777,0z" fill="#ffd4a6" stroke="none" stroke-width="0.5" stroke-linecap="butt"/></g></g></svg>